<svg width="32" height="32" viewBox="0 0 32 32" fill="none" xmlns="http://www.w3.org/2000/svg">
<path d="M15.7798 11.0258C17.0851 13.0834 18.8416 14.8282 20.9233 16.1205L11.6626 25.3823C11.2376 25.8072 11.0252 26.0199 10.7641 26.1596C10.503 26.2993 10.2081 26.3581 9.61862 26.476L5.14304 27.3715C4.81059 27.438 4.64391 27.4708 4.54929 27.3764C4.45468 27.2818 4.48765 27.1153 4.55417 26.7827L5.44968 22.3071C5.56756 21.7177 5.62637 21.4226 5.76608 21.1616C5.9058 20.9005 6.11847 20.6881 6.54343 20.2631L15.7798 11.0258ZM22.0268 5.33246C22.2239 5.30281 22.4244 5.30285 22.6216 5.33246C23.2727 5.4304 23.8103 5.96746 24.8842 7.04144C25.958 8.11517 26.4952 8.6522 26.5932 9.30316C26.6229 9.50038 26.6229 9.70165 26.5932 9.89886C26.4952 10.5498 25.958 11.0869 24.8842 12.1606L22.3813 14.6625C20.2487 13.4345 18.4776 11.6768 17.2339 9.57172L19.7651 7.04144C20.839 5.9676 21.3758 5.43044 22.0268 5.33246Z" fill="#E6EDF5"/>
</svg>
