<svg width="30" height="30" viewBox="0 0 30 30" fill="none" xmlns="http://www.w3.org/2000/svg">
<path d="M13.75 5C18.5825 5 22.5 8.91751 22.5 13.75C22.5 18.5825 18.5825 22.5 13.75 22.5C8.91751 22.5 5 18.5825 5 13.75C5 8.91751 8.91751 5 13.75 5ZM13.75 7.75C12.9621 7.75 12.182 7.90552 11.4541 8.20703C10.7261 8.50856 10.065 8.95066 9.50781 9.50781C8.95066 10.065 8.50856 10.7261 8.20703 11.4541C7.90552 12.182 7.75 12.9621 7.75 13.75C7.75 14.3023 8.19772 14.75 8.75 14.75C9.30228 14.75 9.75 14.3023 9.75 13.75C9.75 13.2248 9.85376 12.7049 10.0547 12.2197C10.2557 11.7344 10.5504 11.2933 10.9219 10.9219C11.2933 10.5504 11.7344 10.2557 12.2197 10.0547C12.7049 9.85376 13.2248 9.75 13.75 9.75C14.3023 9.75 14.75 9.30228 14.75 8.75C14.75 8.19772 14.3023 7.75 13.75 7.75Z" fill="#E6EDF5"/>
<path d="M25 25L22.5 22.5" stroke="#E6EDF5" stroke-width="2" stroke-linecap="round"/>
</svg>
